<svg width="20" height="20" viewBox="0 0 20 20" fill="none" xmlns="http://www.w3.org/2000/svg">
<path d="M10 1.66669C5.40002 1.66669 1.66669 5.40002 1.66669 10C1.66669 14.6 5.40002 18.3334 10 18.3334C14.6 18.3334 18.3334 14.6 18.3334 10C18.3334 5.40002 14.6 1.66669 10 1.66669ZM13.3334 10.8334H10.8334V13.3334C10.8334 13.7917 10.4584 14.1667 10 14.1667C9.54169 14.1667 9.16669 13.7917 9.16669 13.3334V10.8334H6.66669C6.20835 10.8334 5.83335 10.4584 5.83335 10C5.83335 9.54169 6.20835 9.16669 6.66669 9.16669H9.16669V6.66669C9.16669 6.20835 9.54169 5.83335 10 5.83335C10.4584 5.83335 10.8334 6.20835 10.8334 6.66669V9.16669H13.3334C13.7917 9.16669 14.1667 9.54169 14.1667 10C14.1667 10.4584 13.7917 10.8334 13.3334 10.8334Z" fill="#FAFAFA"/>
</svg>
